<svg xmlns="http://www.w3.org/2000/svg" id="profile" viewBox="0 0 1682 1671"><defs/><defs><clipPath id="clip-path"><circle cx="840.8" cy="828.8" r="840.8" fill="none"/></clipPath><style>.cls-6{fill:#f4d5ce}.cls-12{fill:#ce697e}.cls-14{fill:#30121f}.cls-15{fill:#160c17}.cls-16{fill:#4c1a29}.cls-17{fill:#dea4a4}.cls-18{fill:#ae656c}.cls-27{fill:#c3b1b9}.cls-32{fill:#345972}.cls-33{fill:#001118}.cls-36{fill:#13171e}</style></defs><g clip-path="url(#clip-path)"><path d="M1089 282l-17 37-36-54 53 17z"/><path fill="#591b34" d="M1072 319l-36-54-17 36-109 36h91v54l71-72z"/><path fill="#bb5063" d="M1001 391l-54 90 53 36v-72l1-54z"/><path fill="#f49a95" d="M1127 499l-18-91-37-89-71 72-1 54v72l72-71 37 18 18 35z"/><path d="M1109 464l-37-18-72 71 37 36h36l54-54-18-35z" class="cls-6"/><path fill="#7f2b44" d="M1181 408l-109-89 37 89 18 91 17 43 19 11 36-54-18-91z"/><path fill="#421f27" d="M879 695l-23-34-18-37 1-36 17-52 36-37-52-19v73l-20 90 34 54 39 18h16l-30-20z"/><path fill="#994657" d="M1037 553l-37-36-53-36-107-1 52 19h36l54 18 18 18 18 54v54l18-35 1-37v-18z"/><path fill="#de7186" d="M1127 499l-54 54h-36v18l-1 37 19 36 18-38 17-35 18-18 36-11-17-43z"/><path fill="#a66472" d="M1199 571l-20-1 19 73-19 53-18 37-53 17 18 1-6 18 42-18 36-54 18-54 18-35-35-37z"/><path d="M1144 542l-36 11h55l-19-11zM1090 571l-17 35-18 38 35 72-18 34h36l18-34-35-55v-53l18-37 35-18h-36l-18 18zM1163 553h-19l35 17 20 1-36-18z" class="cls-12"/><path fill="#1f0f1b" d="M1018 698l18-90-18 35-36 54-34 18h-55l-39-18-14 35 37 1 34 18h107l18-18-18-35z"/><path d="M911 751l-34-18-37-1-20 53 19 38 54-36 89-18-71-18z" class="cls-14"/><path d="M839 823l-19-38-18 146 91-144-54 36z" class="cls-15"/><path d="M837 913l1-39-36 57 35-18zM911 751l71 18-89 18-55 87 55-15 18-38 54 2 53-36v-36H911z" class="cls-15"/><path d="M1055 644l-19-36-18 90 18 35-18 18v36l54-37 18-34-35-72z" class="cls-16"/><path d="M1072 842l17-18-17-19-17-18-37 36v36l18 17h37l-18-17 17-17z" class="cls-17"/><path d="M1018 823l37-36 17-37-54 37-53 36v36l-1 18v37l36-37 36-1-18-17v-36z" class="cls-18"/><path d="M1000 877l-36 37 37 36 36-55-37-18z" class="cls-17"/><path fill="#e1c4c9" d="M1108 750h-36l-17 37 17 18 17 19-34 35 18 17h-37l-36 1 37 18-36 55-19 17 54 18 1-34 36-57 35-89 18-54-18-1z"/><path fill="#cc6472" d="M1001 950l-37-36-36 36h73z"/><path d="M911 821l-18 38 26 7 45 11 1-18v-36l-54-2z" class="cls-16"/><path d="M838 874l-1 39 56-18 35 55 36-36v-37l-71-18-55 15z" class="cls-16"/><path d="M893 895l-56 18 35 71 38 4 18-38-35-55z" class="cls-14"/><path d="M982 967l19-17h-73l54 55 54-20-54-18z" class="cls-17"/><path fill="#ba7176" d="M982 1005l54 17v-37l-54 20z"/><path fill="#a6455a" d="M982 1005l-54-55 19 71 17 36 72-35-54-17z"/><path d="M964 1057l-17-36-19-71-18 38v33l18 36 36 18 55-18 17-35-72 35z" class="cls-16"/><path fill="#ab8586" d="M749 1110l-36 216-72-72 108-144z"/><path fill="#64323d" d="M749 1110l-108 144-36-91 144-53z"/><path fill="#2a111d" d="M407 1217l198-54-162 110-36-56z"/><path d="M605 1163l-162 110 72 53 126-72-36-91z" class="cls-18"/><path fill="#edc3b6" d="M641 1254l-126 72 69 52 76 57 53-109-72-72z"/><path d="M732 1214l105-138-88 34-17 104z" class="cls-27"/><path d="M856 1129l1-19-1-35-19 1-105 138-19 112 144-144 53 19-54-72z" class="cls-27"/><path d="M910 1201l-53-19-144 144-53 109 89 36h107l37-54 35-72v-91l-18-53z" class="cls-6"/><path fill="#ba8892" d="M910 1201l18 53v91l-35 72-37 54 54-36 37-90 18-72-55-72z"/><path fill="#000005" d="M1089 193l-125-73-36-53-123-16-165 17-251 233-36 144-1 126 109 392-397 238v180l271-34 56-56 52-18-36-56 198-54 144-53 88-34 19-1 1 35 54 37 17-90-18-36v-33l-38-4-35-71-35 18 18-146 20-53 14-35-34-54 20-90v-73l107 1 54-90v-54h-91l109-36 17-36 53 17-17 37 21 18 88 71 18 91 16-55 18-107-144-144z"/><path fill="#1d2c3d" d="M749 1471l-89-36-145-109-72-53-52 18 214 180 144 35 107-35H749z"/><path fill="#5d6770" d="M911 1147l-54-37-1 19 54 72 55 72v-91l-54-35z"/><path d="M1109 1417l-144 414h179l-35-414z" class="cls-32"/><path d="M1144 1398l-35-89-74-75-70-52 60 54 84 181 35 414h35v-242l-35-191z" class="cls-33"/><path fill="#63859f" d="M1025 1236l-60-54v91l-18 72-37 90-54 36-107 35 18 199 198 126 144-414-84-181z"/><path d="M767 1705l-18-199-144-35-73 360h433l-198-126z" class="cls-32"/><path fill="#0c384c" d="M391 1291l-56 56-107 176 16 308h288l73-360-214-180z"/><path d="M335 1347l-271 34v450h180l-16-308 107-176z" class="cls-33"/><path d="M856 536l36-37h36l54 18 18 18 18 54v54l-36 54-34 18h-39l-30-20-23-34-18-37 1-36 17-52zM1144 553l35 17 19 73-19 53-18 37-53 17 18-34-35-55v-53l18-37 35-18z" class="cls-36"/></g></svg>