<svg xmlns="http://www.w3.org/2000/svg" viewBox="0 0 1170 1780"><defs/><defs/><g id="Ebene_2" data-name="Ebene 2"><g id="Ebene_2-2" data-name="Ebene 2"><path d="M740 0l123 16 37 54L740 0zM740 0l160 70-108 110L740 0z"/><path d="M740 0L576 17l216 163L740 0zM792 180l54 107 54-217-108 110zM846 287l126-73-72-144-54 217z"/><path d="M972 214l53-72-125-72 72 144zM972 214l53 18v-90l-53 72zM1025 232l-17 36-36-54 53 18z"/><path fill="#160000" d="M1008 268l20 19-3-55-17 36z"/><path d="M1028 287h141l-144-55 3 55z"/><path d="M1169 287l-144-145v90l144 55z"/><path fill="#100" d="M1169 287l-52 70-89-70h141z"/><path fill="#0c0000" d="M1117 357l34 37 18-107-52 70z"/><path fill="#3a161e" d="M972 214l-36 73 72-19-36-54z"/><path d="M972 214l-18 36-108 37 126-73z" class="cls-5"/><path fill="#4c1b29" d="M954 250l-18 37h-90l108-37z"/><path fill="#1d0a15" d="M936 287l-86 35-4-35h90z"/><path fill="#160911" d="M850 322l86 18v-53l-86 35z"/><path fill="#622230" d="M936 340l72-72-72 19v53z"/><path fill="#a94356" d="M936 340l72-72v128l-72-56z"/><path fill="#cd606e" d="M1008 268v128l36-39-36-89z"/><path fill="#6a2336" d="M1008 268l36 89h73l-109-89z"/><path fill="#461e28" d="M1117 357l17 91 17-54-34-37z"/><path fill="#853246" d="M1117 357l-55 91h72l-17-91z"/><path fill="#8d3248" d="M1117 357h-73l18 91 55-91z"/><path fill="#f19c9d" d="M1044 357v56l18 35-18-91z"/><path fill="#f49491" d="M1044 357l-36 39 36 17v-56z"/><path d="M936 340l-86-18-75 107 161-89zM850 322l-75-18 71-17 4 35z"/><path d="M846 287l-54-107-17 124 71-17zM850 322l-75-18v125l75-107zM775 304l-32 127 32-2V304z"/><path fill="#05060c" d="M743 431l32 72v-74l-32 2z"/><path d="M576 17l-71 254 287-91L576 17zM505 271l287-91-17 124-270-33z"/><path d="M505 271l270 33-32 127-238-160z"/><path d="M505 271l17 303 221-143-238-160zM505 271l-181-20L576 17l-71 254z"/><path d="M505 271L289 394l35-143 181 20zM505 271L289 394l233 180-17-303zM522 574l163 37-76-93-87 56z"/><path d="M685 611l-76-93 134-87-58 180z"/><path fill="#120913" d="M685 611l90-108-32-72-58 180z"/><path d="M685 611l71-19 19-89-90 108z" class="cls-20"/><path d="M289 394l108 518 125-338-233-180z"/><path d="M289 394l-1 127 109 391-108-518zM522 574L397 991v-79l125-338zM522 574l18 538-143-121 125-417z"/><path d="M522 574l143 396-125 142-18-538z"/><path d="M522 574l215 307-72 89-143-396z"/><path d="M522 574l215 307-52-270-163-37z"/><path fill="#00070c" d="M685 611l52 270 18-146-70-124z"/><path fill="#00070d" d="M685 611l70 124 20-53-90-71z"/><path fill="#00050a" d="M685 611l90 71 15-36-105-35z"/><path fill="#00030a" d="M685 611l105 35-34-54-71 19z"/><path d="M397 991L0 1151l397-239v79zM397 991L0 1151l342 15 55-175z"/><path d="M397 991l143 121-198 54 55-175zM342 1166L0 1330v-179l342 15z"/><path fill="#0a0a10" d="M737 881l71 53-36-72-35 19z"/><path d="M737 881l71 53-143 36 72-89z"/><path d="M665 970l110 18 33-54-143 36z" class="cls-5"/><path fill="#000105" d="M775 988l-90 72-20-90 110 18z"/><path d="M685 1060l-20-90-125 142 145-52z" class="cls-20"/><path fill="#160a13" d="M685 1060l87-35 3-37-90 72z"/><path fill="#150912" d="M772 1025l20-1-17-36-3 37z"/><path fill="#00030c" d="M792 1024l18-18-35-18 17 36z"/><path d="M810 1006l36-35-71 17 35 18z" class="cls-30"/><path d="M775 988l71-17-38-37-33 54z" class="cls-30"/><path fill="#421928" d="M810 1006l-17 54-1-36 18-18z"/><path d="M810 1006l-17 54 71-54h-54zM810 1006l36-35 18 35h-54z" class="cls-32"/><path d="M864 1006l-18 91-53-37 71-54z" class="cls-20"/><path fill="#1f0f18" d="M737 881l91-145-54 36-37 109z"/><path fill="#0e0d11" d="M737 881l37-109-19-37-18 146z"/><path fill="#1b0f17" d="M737 881l36-58-1 39-35 19z"/><path fill="#2f121d" d="M936 340l-53 90-108-1 161-89z"/><path fill="#8b3446" d="M936 340l72 56-73-1 1-55z"/><path fill="#6b2936" d="M936 340l-1 55-52 35 53-90z"/><path fill="#4f1a29" d="M883 430l-108-1 52 19 56-18z"/><path fill="#bb5063" d="M883 430l53 37-1-72-52 35z"/><path fill="#f49a95" d="M935 395l73 1-72 71-1-72z"/><path fill="#fddad5" d="M1008 396l36 17-36 90V396z"/><path fill="#fde3e2" d="M1008 396v107h-36l36-107z"/><path fill="#fdd2c9" d="M1008 396l-36 107-36-36 72-71z"/><path fill="#fde0e3" d="M1044 413l-36 90 54-55-18-35z"/><path fill="#f7c0c1" d="M1062 448l18 44-36-7 18-37z"/><path fill="#efadb6" d="M1062 448l-18 37-36 18 54-55z"/><path fill="#7f2b44" d="M1062 448l18 44 54-44h-72z"/><path fill="#501f2c" d="M1134 448l-35 54-19-10 54-44z"/><path fill="#d77785" d="M1044 485l36 7-36 10v-17z"/><path fill="#ac3f5d" d="M1044 485v17l-36 1 36-18z"/><path fill="#e7a7ae" d="M1044 502h55l-19-10-36 10z"/><path fill="#c08490" d="M1099 502l16 18-35-18h19z"/><path fill="#e6bcc1" d="M1080 502l-36 18v-18h36z"/><path fill="#ecacb7" d="M1044 502l-18 18h18v-18z"/><path fill="#cc5473" d="M1044 502l-18 18-18-17 36-1z"/><path fill="#eeb1ba" d="M1008 503v53l18-36-18-17z"/><path fill="#d78b94" d="M1008 503v53l-36-36 36-17z"/><path d="M1008 503h-36v17l36-17zM972 503v17l-18-18 18 1z" class="cls-59"/><path fill="#de818d" d="M972 503l-18-1-18-35 36 36z"/><path fill="#bc566b" d="M954 502l-18-18v-17l18 35z"/><path fill="#994657" d="M954 502l-1 36-17-54 18 18z"/><path fill="#883045" d="M936 484v-17h-19l19 17z"/><path fill="#a73d57" d="M917 467l-34-37 53 37h-19z"/><path fill="#6d273a" d="M917 467l-54-18 20-19 34 37z"/><path fill="#632334" d="M883 430l-56 18 36 1 20-19z"/><path fill="#713845" d="M827 448l-35 37-17-56 52 19z"/><path d="M775 429l17 56-17 18v-74z" class="cls-68"/><path fill="#7a4f5b" d="M775 503l-1 70-18 19 19-89z"/><path d="M775 503l17-18-18 52 1-34z" class="cls-68"/><path fill="#4b2b38" d="M774 573l18 37-36-18 18-19z"/><path fill="#51303b" d="M792 610l-2 36-34-54 36 18z"/><path fill="#7f424e" d="M792 610l-2 36 38 18-36-54z"/><path fill="#0c0711" d="M828 664h55l-36 18-19-18z"/><path fill="#421f27" d="M828 664h17l-30-20 13 20z"/><path fill="#0d0911" d="M828 664l-53 18 15-36 38 18z"/><path d="M775 682h72l-19-18-53 18z" class="cls-32"/><path d="M883 664l35 18h-71l36-18z" class="cls-76"/><path d="M883 664l35-18v36l-35-18z" class="cls-76"/><path fill="#00050f" d="M918 682l36-35-36-1v36z"/><path fill="#00050d" d="M918 646l36-54v55l-36-1z"/><path fill="#1b0d1a" d="M954 592l18-34-18 89v-55z"/><path d="M954 592l-1-54 19 20-18 34z" class="cls-80"/><path d="M972 558v-38l-19 18 19 20z" class="cls-80"/><path fill="#e3b6bb" d="M953 538l19-18-18-18-1 36z"/><path fill="#9a3456" d="M972 520l18 73-18-35v-38z"/><path fill="#de7186" d="M972 520l36 36-18 37-18-73z"/><path fill="#321124" d="M990 593l-18-35-18 89 36-54z"/><path fill="#f4d5da" d="M1008 556l18 1v-37l-18 36z"/><path fill="#bf9ea4" d="M1026 557l18-37h-18v37z"/><path fill="#95757b" d="M1026 557v53l-18-54 18 1z"/><path fill="#ec9da6" d="M1008 556l18 54-36-17 18-37z"/><path fill="#c65a75" d="M990 593l36 17v55l-36-72z"/><path fill="#401228" d="M990 593l36 72-54 17 18-89z"/><path fill="#1a0d1a" d="M990 593l-36 54 18 35 18-89z"/><path fill="#180d1a" d="M954 647l18 35h-54l36-35z"/><path fill="#deacac" d="M1026 610l36 55h-36v-55z"/><path fill="#ca9fa2" d="M1062 665l-18 35-18-35h36z"/><path fill="#ce697e" d="M1026 665l18 35h-37l19-35z"/><path fill="#5e1a35" d="M1026 665l-19 35-35-18 54-17z"/><path fill="#5d3a41" d="M1044 700l18 1 35-19-53 18z"/><path fill="#ac7e88" d="M1062 701h36l-1-19-35 19z"/><path fill="#b88490" d="M1062 701l-18 54v-55l18 1z"/><path fill="#7a4455" d="M1062 701l-6 18 42-18h-36z"/><path fill="#844e5b" d="M1097 682l18-37-17 56-1-19z"/><path fill="#986371" d="M1098 701l35-54-18-2-17 56z"/><path fill="#9e6574" d="M1115 645l37-53-19 55-18-2z"/><path fill="#985967" d="M1115 645l37-53h-19l-18 53z"/><path fill="#b1808b" d="M1152 592l18-35-36-37 18 72z"/><path fill="#bf8591" d="M1152 592h-19l1-72 18 72z"/><path fill="#46272d" d="M1133 592l1-35-19-37 18 72z"/><path fill="#a66472" d="M1134 557v-37h-19l19 37z"/><path fill="#ca8f95" d="M1115 520h19l-35-18 16 18z"/><path fill="#3e1127" d="M1007 700l-53 1 18-19 35 18z"/><path d="M972 682l-125 19-35-19h160z"/><path fill="#120c17" d="M847 701h107l-36 18-71-18z"/><path fill="#1f0f1b" d="M847 701h107l18-19-125 19z"/><path fill="#28111d" d="M812 682l-57 53 20-53h37z"/><path fill="#441827" d="M793 700l54 1-35-19-19 18z"/><path fill="#70273b" d="M793 700l35 36 19-35-54-1z"/><path fill="#672635" d="M793 700l35 36-54 36 19-72z"/><path fill="#381621" d="M793 700l-19 72-19-37 38-35z"/><path fill="#30121f" d="M828 736l90-17-71-18-19 35z"/><path fill="#110a12" d="M828 736l19 34 71-51-90 17z"/><path fill="#0f0911" d="M847 770l-19-34v72l19-38z"/><path fill="#1b0c16" d="M828 736v72l-55 15 55-87z"/><path fill="#441d26" d="M828 808l72-36-53-2-19 38z"/><path fill="#0c0a10" d="M847 770l53 2 18-53-71 51z"/><path fill="#180d16" d="M918 719l36 17-54 36 18-53z"/><path fill="#160c17" d="M918 719l36-18v35l-36-17z"/><path fill="#591b34" d="M954 701v35l53-36-53 1z"/><path fill="#e7b5ba" d="M1007 700h37l-54 36 17-36z"/><path d="M1007 700l-53 36h36l17-36zM990 736l-90 36 54-36h36z" class="cls-128"/><path fill="#e3ccd0" d="M990 736l54 1v-37l-54 36z"/><path fill="#e2c2c2" d="M990 736l17 18 37-17-54-1z"/><path fill="#d5bcc2" d="M1007 754l37-17v18l-37-1z"/><path fill="#ebab9f" d="M1007 754l-53 18 36-36 17 18z"/><path fill="#ae5b63" d="M954 772h-54l90-36-36 36z"/><path fill="#ccacad" d="M1044 755l-36 71-18-18 54-53z"/><path fill="#a57680" d="M1044 755l-36 88v-17l36-71z"/><path fill="#d4b8bc" d="M1044 755l-19 19-18-20 37 1z"/><path fill="#ce8b8f" d="M1025 774l-18 17v-37l18 20z"/><path fill="#e2a6a2" d="M1007 791l-53-19 53-18v37z"/><path fill="#ecd3d2" d="M1007 791l-53-19v18l53 1z"/><path fill="#e3c4c2" d="M1007 791l-17 17-36-18 53 1z"/><path fill="#e29d9d" d="M954 790v18h36l-36-18z"/><path fill="#d46d7d" d="M954 790l-54 18 54-36v18z"/><path fill="#c04d6a" d="M954 790l-54 18h54v-18z"/><path fill="#9d3c51" d="M954 772l-54 36v-36h54z"/><path fill="#632434" d="M900 808h-72l72-36v36z"/><path fill="#a3465f" d="M900 808v19h36l-36-19z"/><path fill="#4d192a" d="M900 827l-72-19v37l72-18z"/><path fill="#160513" d="M900 827l-46-12 46-7v19z"/><path fill="#4f1a2b" d="M900 808l-46 7-26-7h72z"/><path fill="#d5a8a6" d="M990 808l18 18h-36l18-18z"/><path fill="#dea4a4" d="M972 826l-18-18h36l-18 18z"/><path fill="#c1617b" d="M972 826l-72-18h54l18 18z"/><path fill="#e3cdd0" d="M936 827l36-1 1 19-37-18z"/><path fill="#d08793" d="M936 827l36-1-72-18 36 19z"/><path fill="#d4bcc1" d="M973 845l35-19h-36l1 19z"/><path fill="#c9aeb5" d="M973 845l35-2v-17l-35 19z"/><path fill="#873446" d="M828 808v37l-56 17 56-54z"/><path fill="#6c2739" d="M828 808l-55 15-1 39 56-54z"/><path fill="#1f0e18" d="M772 862l36 72 20-89-56 17z"/><path fill="#3b1223" d="M828 845l72 18v-36l-72 18z"/><path fill="#a1405a" d="M900 863l36-36h-36v36z"/><path fill="#e18189" d="M900 863l36 36v-72l-36 36z"/><path fill="#e7aba7" d="M936 827l37 18-37 54v-72z"/><path fill="#c2a2a8" d="M973 845l-1 56 36-58-35 2z"/><path fill="#ddbcbb" d="M973 845l-1 56-36-2 37-54z"/><path fill="#cba8ae" d="M936 899l36 2v34l-36-36z"/><path fill="#e1c4c9" d="M972 935l-54-19 18-17 36 36z"/><path fill="#cc6472" d="M936 899l-36-36-36 36h72z"/><path fill="#4c1a29" d="M864 899l36-36-72-18 36 54z"/><path fill="#28111b" d="M864 899l-56 35 20-89 36 54z"/><path fill="#2d111f" d="M864 899l-18 38-38-3 56-35z"/><path fill="#ea9d99" d="M864 899l54 17 18-17h-72z"/><path fill="#e78e90" d="M864 899l54 55v-38l-54-17z"/><path fill="#dea3a1" d="M918 954v-38l54 19-54 19z"/><path fill="#ba7176" d="M918 954l54 18v-37l-54 19z"/><path fill="#ad5062" d="M918 954l54 18-72 35 18-53z"/><path fill="#ad465d" d="M918 954l-35 17-19-72 54 55z"/><path fill="#5f2034" d="M883 971l-19-72-18 38 37 34z"/><path fill="#2f111f" d="M883 971h-37v-34l37 34z"/><path d="M846 971v-34l-38-3 38 37z"/><path fill="#280f1b" d="M846 971h37l-19 35-18-35z"/><path fill="#501d2d" d="M864 1006l36 1-17-36-19 35z"/><path fill="#a6455a" d="M900 1007l18-53-35 17 17 36z"/><path fill="#4f1e2c" d="M900 1007h55l17-35-72 35z"/><path fill="#32111f" d="M900 1007v17l55-17h-55z"/><path fill="#1f0a18" d="M900 1007v17l-36-18 36 1z"/><path fill="#985863" d="M793 1060l-21-35 20-1 1 36z"/><path fill="#ab8586" d="M685 1060l-36 215-72-71 108-144z"/><path fill="#64323d" d="M685 1060l-108 144-37-92 145-52z"/><path fill="#2a111d" d="M342 1166l198-54-161 110-37-56z"/><path fill="#98555e" d="M379 1222l71 53 90-163-161 110z"/><path fill="#ae656c" d="M450 1275l90-163 37 92-127 71z"/><path fill="#edc3b6" d="M450 1275l70 53 57-124-127 71z"/><path fill="#e7d3d5" d="M520 1328l129-53-72-71-57 124z"/><path fill="#f4ecee" d="M520 1328l129-53-53 110-76-57z"/><path fill="#baa7ae" d="M649 1275l18-111 125-86-143 197z"/><path fill="#8d676a" d="M667 1164l105-139-87 35-18 104z"/><path fill="#b0999f" d="M667 1164l105-139 21 35-126 104z"/><path fill="#ad949e" d="M667 1164l126-104-1 18-125 86z"/><path fill="#633d4c" d="M793 1060l53 91-54-73 1-18z"/><path fill="#271220" d="M793 1060l53 91v-54l-53-37z"/><path fill="#d4bdc4" d="M792 1078l54 73-53-19-1-54z"/><path fill="#c3b1b9" d="M792 1078l1 54-144 143 143-197z"/><path fill="#ddcacf" d="M649 1275l161 20-17-163-144 143z"/><path fill="#e3d0d6" d="M810 1295l36-144-53-19 17 163z"/><path fill="#edd7dd" d="M810 1295l54-91-18-53-36 144z"/><path fill="#34232d" d="M846 1151v-54l54 126-54-72z"/><path fill="#5f2c3c" d="M846 1151l54 72-36-19-18-53z"/><path fill="#54293a" d="M864 1204l36 19-18 72-18-91z"/><path fill="#af6275" d="M864 1204l18 91h-18v-91z"/><path fill="#f3e0e3" d="M864 1204v91h-54l54-91z"/><path fill="#b26a7d" d="M864 1295h18l-53 72 35-72z"/><path fill="#874256" d="M882 1295l-36 90-17-18 53-72z"/><path fill="#f9e6ea" d="M829 1367l35-72h-54l19 72z"/><path fill="#fbe8ec" d="M829 1367l-108-19 89-53 19 72z"/><path fill="#f1e0e4" d="M721 1348l89-53-161-20 72 73z"/><path fill="#f5e7eb" d="M721 1348l-36 73-36-146 72 73z"/><path fill="#efdfe3" d="M649 1275l36 146-89-36 53-110z"/><path fill="#f1e1e6" d="M685 1421h107l-71-73-36 73z"/><path fill="#fcedef" d="M792 1421l37-54-108-19 71 73z"/><path fill="#ba8892" d="M792 1421l54-36-17-18-37 54z"/><path fill="#0f1117" d="M596 1385l-146-110 90 146 56-36z"/><path fill="#000c17" d="M450 1275l-123-34 52-19 71 53z"/><path d="M379 1222l-37-56-15 75 52-19zM327 1241l213 180-90-146-123-34z"/><path d="M327 1241l15-75L0 1330l327-89z"/><path d="M327 1241l-56 55-271 34 327-89z" class="cls-20"/><path fill="#002030" d="M271 1296l269 125-213-180-56 55z"/><path fill="#000008" d="M540 1421l145 35-89-71-56 36z"/><path fill="#051321" d="M596 1385l89 71v-35l-89-36z"/><path fill="#1d2c3d" d="M685 1421h107l-107 35v-35z"/><path fill="#3d5b6e" d="M792 1421l1 55-108-20 107-35z"/><path fill="#73899d" d="M792 1421l54-36-53 91-1-55z"/><path fill="#7a94ab" d="M846 1385l18 35-71 56 53-91z"/><path fill="#8b8b9c" d="M846 1385l36-90-18 125-18-35z"/><path fill="#a3aec1" d="M882 1295h18l-36 125 18-125z"/><path fill="#868593" d="M900 1295v-72l-18 72h18z"/><path fill="#5d6770" d="M900 1223v-91l-54-35 54 126z"/><path fill="#0d2d33" d="M900 1132l144 127-73-76-71-51z"/><path fill="#5b7180" d="M900 1132l61 53-61 38v-91z"/><path fill="#7c8fa1" d="M961 1185l-61 110v-72l61-38z"/><path fill="#607788" d="M961 1185l83 182-144-72 61-110z"/><path fill="#2d4650" d="M961 1185l83 182v-108l-83-74z"/><path fill="#001e24" d="M1044 1259l71 280-36-192-35-88z"/><path fill="#0d323b" d="M1044 1259l71 280-71-172v-108z"/><path fill="#87a1b6" d="M1044 1367l-180 53 36-125 144 72z"/><path fill="#7392ab" d="M793 1476l107 304-215-324 108 20z"/><path fill="#87a3bb" d="M793 1476l70 199 1-255-71 56z"/><path fill="#85a1ba" d="M864 1420l180-53-181 308 1-255z"/><path fill="#7593ad" d="M1044 1367l-144 413-37-105 181-308z"/><path fill="#4b6a7d" d="M1044 1367l-144 413h179l-35-413z"/><path fill="#012734" d="M1044 1367l71 172-36 241-35-413z"/><path fill="#001118" d="M1115 1539v241h-36l36-241z"/><path fill="#63859f" d="M900 1780l-215-324 18 199 197 125z"/><path fill="#446881" d="M900 1780H467l236-125 197 125z"/><path fill="#42657e" d="M703 1655l-163-234 145 35 18 199z"/><path fill="#345972" d="M703 1655l-163-234-73 359 236-125z"/><path fill="#1f4359" d="M540 1421l-73 359-196-484 269 125z"/><path fill="#053244" d="M271 1296l-91 484-17-307 108-177z"/><path fill="#063347" d="M271 1296l-91 484 154-328-63-156z"/><path fill="#0c384c" d="M334 1452l133 328H180l154-328z"/><path fill="#000a17" d="M163 1473l108-177-271 34 163 143z"/><path fill="#001120" d="M163 1473l17 307L0 1330l163 143z"/><path fill="#00101a" d="M0 1330l180 450H0v-450z"/></g></g></svg>