<svg xmlns="http://www.w3.org/2000/svg" id="Ebene_2" data-name="Ebene 2" viewBox="0 0 1682 1671"><defs/><defs><clipPath id="clip-path"><circle cx="840.8" cy="840.8" r="840.8" fill="none"/></clipPath></defs><g clip-path="url(#clip-path)"><path d="M805 63l123 16 36 53-159-69zM805 63l159 69-108 111-51-180z"/><path d="M805 63L640 80l216 163-51-180zM856 243l54 106 54-217-108 111zM910 349l126-72-72-145-54 217z"/><path d="M1036 277l53-72-125-73 72 145zM1036 277l53 17v-89l-53 72zM1089 294l-17 37-36-54 53 17z"/><path fill="#160000" d="M1072 331l21 18-4-55-17 37z"/><path d="M1093 349h140l-144-55 4 55z"/><path d="M1233 349l-144-144v89l144 55z"/><path fill="#100" d="M1233 349l-52 71-88-71h140z"/><path fill="#0c0000" d="M1181 420l34 36 18-107-52 71z"/><path fill="#3a161e" d="M1036 277l-35 72 71-18-36-54z"/><path d="M1036 277l-17 36-109 36 126-72z" class="cls-7"/><path fill="#4c1b29" d="M1019 313l-18 36h-91l109-36z"/><path fill="#1d0a15" d="M1001 349l-87 36-4-36h91z"/><path fill="#160911" d="M914 385l87 18v-54l-87 36z"/><path fill="#622230" d="M1001 403l71-72-71 18v54z"/><path fill="#a94356" d="M1001 403l71-72v127l-71-55z"/><path fill="#cd606e" d="M1072 331v127l37-38-37-89z"/><path fill="#6a2336" d="M1072 331l37 89h72l-109-89z"/><path fill="#461e28" d="M1181 420l18 91 16-55-34-36z"/><path fill="#853246" d="M1181 420l-54 91h72l-18-91z"/><path fill="#8d3248" d="M1181 420h-72l18 91 54-91z"/><path fill="#f19c9d" d="M1109 420v56l18 35-18-91z"/><path fill="#f49491" d="M1109 420l-37 38 37 18v-56z"/><path d="M1001 403l-87-18-74 107 161-89zM914 385l-74-18 70-18 4 36z"/><path d="M910 349l-54-106-16 124 70-18zM914 385l-74-18v125l74-107zM840 367l-32 126 32-1V367z"/><path fill="#05060c" d="M808 493l32 72v-73l-32 1z"/><path d="M640 80l-71 253 287-90L640 80zM569 333l287-90-16 124-271-34z"/><path d="M569 333l271 34-32 126-239-160z"/><path d="M569 333l17 304 222-144-239-160zM569 333l-180-20L640 80l-71 253z"/><path d="M569 333L353 457l36-144 180 20zM569 333L353 457l233 180-17-304zM586 637l163 36-76-93-87 57z"/><path d="M749 673l-76-93 135-87-59 180z"/><path fill="#120913" d="M749 673l91-108-32-72-59 180z"/><path d="M749 673l71-18 20-90-91 108z" class="cls-22"/><path d="M353 457l108 518 125-338-233-180z"/><path d="M353 457l-1 127 109 391-108-518zM586 637l-125 416v-78l125-338zM586 637l19 538-144-122 125-416z"/><path d="M586 637l144 396-125 142-19-538z"/><path d="M586 637l216 306-72 90-144-396z"/><path d="M586 637l216 306-53-270-163-36z"/><path fill="#00070c" d="M749 673l53 270 18-146-71-124z"/><path fill="#00070d" d="M749 673l71 124 20-53-91-71z"/><path fill="#00050a" d="M749 673l91 71 14-35-105-36z"/><path fill="#00030a" d="M749 673l105 36-34-54-71 18z"/><path d="M461 1053L64 1213l397-238v78zM461 1053L64 1213l343 16 54-176z"/><path d="M461 1053l144 122-198 54 54-176zM407 1229L64 1393v-180l343 16z"/><path fill="#0a0a10" d="M802 943l70 53-35-71-35 18z"/><path d="M802 943l70 53-142 37 72-90z"/><path d="M730 1033l110 18 32-55-142 37z" class="cls-7"/><path fill="#000105" d="M840 1051l-91 71-19-89 110 18z"/><path d="M749 1122l-19-89-125 142 144-53z" class="cls-22"/><path fill="#160a13" d="M749 1122l88-34 3-37-91 71z"/><path fill="#150912" d="M837 1088l19-1-16-36-3 37z"/><path fill="#00030c" d="M856 1087l18-18-34-18 16 36z"/><path d="M874 1069l36-36-70 18 34 18z" class="cls-32"/><path d="M840 1051l70-18-38-37-32 55z" class="cls-32"/><path fill="#421928" d="M874 1069l-17 53-1-35 18-18z"/><path d="M874 1069l-17 53 71-53h-54zM874 1069l36-36 18 36h-54z" class="cls-34"/><path d="M928 1069l-17 90-54-37 71-53z" class="cls-22"/><path fill="#1f0f18" d="M802 943l91-144-54 36-37 108z"/><path fill="#0e0d11" d="M802 943l37-108-19-38-18 146z"/><path fill="#1b0f17" d="M802 943l36-57-1 39-35 18z"/><path fill="#2f121d" d="M1001 403l-54 90-107-1 161-89z"/><path fill="#8b3446" d="M1001 403l71 55-72-1 1-54z"/><path fill="#6b2936" d="M1001 403l-1 54-53 36 54-90z"/><path fill="#4f1a29" d="M947 493l-107-1 52 19 55-18z"/><path fill="#bb5063" d="M947 493l53 36v-72l-53 36z"/><path fill="#f49a95" d="M1000 457l72 1-72 71v-72z"/><path fill="#fddad5" d="M1072 458l37 18-36 89-1-107z"/><path fill="#fde3e2" d="M1072 458l1 107h-36l35-107z"/><path fill="#fdd2c9" d="M1072 458l-35 107-37-36 72-71z"/><path fill="#fde0e3" d="M1109 476l-36 89 54-54-18-35z"/><path fill="#f7c0c1" d="M1127 511l17 43-36-6 19-37z"/><path fill="#efadb6" d="M1127 511l-19 37-35 17 54-54z"/><path fill="#7f2b44" d="M1127 511l17 43 55-43h-72z"/><path fill="#501f2c" d="M1199 511l-36 54-19-11 55-43z"/><path fill="#d77785" d="M1108 548l36 6-36 11v-17z"/><path fill="#ac3f5d" d="M1108 548v17h-35l35-17z"/><path fill="#e7a7ae" d="M1108 565h55l-19-11-36 11z"/><path fill="#c08490" d="M1163 565l16 17-35-17h19z"/><path fill="#e6bcc1" d="M1144 565l-35 18-1-18h36z"/><path fill="#ecacb7" d="M1108 565l-18 18h19l-1-18z"/><path fill="#cc5473" d="M1108 565l-18 18-17-18h35z"/><path fill="#eeb1ba" d="M1073 565v53l17-35-17-18z"/><path fill="#d78b94" d="M1073 565v53l-36-35 36-18z"/><path d="M1073 565h-36v18l36-18zM1037 565v18l-19-18h19z" class="cls-61"/><path fill="#de818d" d="M1037 565h-19l-18-36 37 36z"/><path fill="#bc566b" d="M1018 565l-18-18v-18l18 36z"/><path fill="#994657" d="M1018 565v36l-18-54 18 18z"/><path fill="#883045" d="M1000 547v-18h-18l18 18z"/><path fill="#a73d57" d="M982 529l-35-36 53 36h-18z"/><path fill="#6d273a" d="M982 529l-54-18 19-18 35 36z"/><path fill="#632334" d="M947 493l-55 18h36l19-18z"/><path fill="#713845" d="M892 511l-36 37-16-56 52 19z"/><path d="M840 492l16 56-16 17v-73z" class="cls-70"/><path fill="#7a4f5b" d="M840 565l-2 71-18 19 20-90z"/><path d="M840 565l16-17-17 52 1-35z" class="cls-70"/><path fill="#4b2b38" d="M838 636l18 37-36-18 18-19z"/><path fill="#51303b" d="M856 673l-2 36-34-54 36 18z"/><path fill="#7f424e" d="M856 673l-2 36 39 18-37-54z"/><path fill="#0c0711" d="M893 727h55l-37 18-18-18z"/><path fill="#421f27" d="M893 727h16l-30-20 14 20z"/><path fill="#0d0911" d="M893 727l-53 17 14-35 39 18z"/><path d="M840 744l71 1-18-18-53 17z" class="cls-34"/><path d="M948 727l34 18h-71l37-18z" class="cls-78"/><path d="M948 727l34-18v36l-34-18z" class="cls-78"/><path fill="#00050f" d="M982 745l36-35-36-1v36z"/><path fill="#00050d" d="M982 709l36-54v55l-36-1z"/><path fill="#1b0d1a" d="M1018 655l18-35-18 90v-55z"/><path d="M1018 655v-54l18 19-18 35z" class="cls-82"/><path d="M1036 620l1-37-19 18 18 19z" class="cls-82"/><path fill="#e3b6bb" d="M1018 601l19-18-19-18v36z"/><path fill="#9a3456" d="M1037 583l18 73-19-36 1-37z"/><path fill="#de7186" d="M1037 583l36 35-18 38-18-73z"/><path fill="#321124" d="M1055 656l-19-36-18 90 37-54z"/><path fill="#f4d5da" d="M1073 618l18 2-1-37-17 35z"/><path fill="#bf9ea4" d="M1091 620l18-37h-19l1 37z"/><path fill="#95757b" d="M1091 620v53l-18-55 18 2z"/><path fill="#ec9da6" d="M1073 618l18 55-36-17 18-38z"/><path fill="#c65a75" d="M1055 656l36 17-1 55-35-72z"/><path fill="#401228" d="M1055 656l35 72-54 17 19-89z"/><path fill="#1a0d1a" d="M1055 656l-37 54 18 35 19-89z"/><path fill="#180d1a" d="M1018 710l18 35h-54l36-35z"/><path fill="#deacac" d="M1091 673l35 55h-36l1-55z"/><path fill="#ca9fa2" d="M1126 728l-18 34-18-34h36z"/><path fill="#ce697e" d="M1090 728l18 34h-36l18-34z"/><path fill="#5e1a35" d="M1090 728l-18 34-36-17 54-17z"/><path fill="#5d3a41" d="M1108 762l18 1 35-18-53 17z"/><path fill="#ac7e88" d="M1126 763h36l-1-18-35 18z"/><path fill="#b88490" d="M1126 763l-18 54v-55l18 1z"/><path fill="#7a4455" d="M1126 763l-6 18 42-18h-36z"/><path fill="#844e5b" d="M1161 745l18-37-17 55-1-18z"/><path fill="#986371" d="M1162 763l36-54-19-1-17 55z"/><path fill="#9e6574" d="M1179 708l37-53-18 54-19-1z"/><path fill="#985967" d="M1179 708l37-53h-18l-19 53z"/><path fill="#b1808b" d="M1216 655l18-35-35-37 17 72z"/><path fill="#bf8591" d="M1216 655h-18l1-72 17 72z"/><path fill="#46272d" d="M1198 655v-36l-19-37 19 73z"/><path fill="#a66472" d="M1198 619l1-36-20-1 19 37z"/><path fill="#ca8f95" d="M1179 582l20 1-36-18 16 17z"/><path fill="#3e1127" d="M1072 762l-54 1 18-18 36 17z"/><path d="M1036 745l-125 18-34-18h159z"/><path fill="#120c17" d="M911 763h107l-36 18-71-18z"/><path fill="#1f0f1b" d="M911 763h107l18-18-125 18z"/><path fill="#28111d" d="M877 745l-57 52 20-53 37 1z"/><path fill="#441827" d="M857 763h54l-34-18-20 18z"/><path fill="#70273b" d="M857 763l36 36 18-36h-54z"/><path fill="#672635" d="M857 763l36 36-54 36 18-72z"/><path fill="#381621" d="M857 763l-18 72-19-38 37-34z"/><path fill="#30121f" d="M893 799l89-18-71-18-18 36z"/><path fill="#110a12" d="M893 799l18 34 71-52-89 18z"/><path fill="#0f0911" d="M911 833l-18-34v72l18-38z"/><path fill="#1b0c16" d="M893 799v72l-55 15 55-87z"/><path fill="#441d26" d="M893 871l72-36-54-2-18 38z"/><path fill="#0c0a10" d="M911 833l54 2 17-54-71 52z"/><path fill="#180d16" d="M982 781l36 18-53 36 17-54z"/><path fill="#160c17" d="M982 781l36-18v36l-36-18z"/><path fill="#591b34" d="M1018 763v36l54-37-54 1z"/><path fill="#e7b5ba" d="M1072 762h36l-53 37 17-37z"/><path d="M1072 762l-54 37h37l17-37zM1055 799l-90 36 53-36h37z" class="cls-130"/><path fill="#e3ccd0" d="M1055 799h53v-37l-53 37z"/><path fill="#e2c2c2" d="M1055 799l17 18 36-18h-53z"/><path fill="#d5bcc2" d="M1072 817l36-18v18h-36z"/><path fill="#ebab9f" d="M1072 817l-54 18 37-36 17 18z"/><path fill="#ae5b63" d="M1018 835h-53l90-36-37 36z"/><path fill="#ccacad" d="M1108 817l-35 71-18-17 53-54z"/><path fill="#a57680" d="M1108 817l-35 89v-18l35-71z"/><path fill="#d4b8bc" d="M1108 817l-19 19-17-19h36z"/><path fill="#ce8b8f" d="M1089 836l-17 18v-37l17 19z"/><path fill="#e2a6a2" d="M1072 854l-54-19 54-18v37z"/><path fill="#ecd3d2" d="M1072 854l-54-19v18l54 1z"/><path fill="#e3c4c2" d="M1072 854l-17 17-37-18 54 1z"/><path fill="#e29d9d" d="M1018 853v18h37l-37-18z"/><path fill="#d46d7d" d="M1018 853l-53 18 53-36v18z"/><path fill="#c04d6a" d="M1018 853l-53 18h53v-18z"/><path fill="#9d3c51" d="M1018 835l-53 36v-36h53z"/><path fill="#632434" d="M965 871h-72l72-36v36z"/><path fill="#a3465f" d="M965 871l-1 18h36l-35-18z"/><path fill="#4d192a" d="M964 889l-71-18v36l71-18z"/><path fill="#160513" d="M964 889l-45-11 46-7-1 18z"/><path fill="#4f1a2b" d="M965 871l-46 7-26-7h72z"/><path fill="#d5a8a6" d="M1055 871l18 17h-37l19-17z"/><path fill="#dea4a4" d="M1036 888l-18-17h37l-19 17z"/><path fill="#c1617b" d="M1036 888l-71-17h53l18 17z"/><path fill="#e3cdd0" d="M1000 889l36-1 1 19-37-18z"/><path fill="#d08793" d="M1000 889l36-1-71-17 35 18z"/><path fill="#d4bcc1" d="M1037 907l36-19h-37l1 19z"/><path fill="#c9aeb5" d="M1037 907l36-1v-18l-36 19z"/><path fill="#873446" d="M893 871v36l-56 18 56-54z"/><path fill="#6c2739" d="M893 871l-55 15-1 39 56-54z"/><path fill="#1f0e18" d="M837 925l35 71 21-89-56 18z"/><path fill="#3b1223" d="M893 907l71 19v-37l-71 18z"/><path fill="#a1405a" d="M964 926l36-37h-36v37z"/><path fill="#e18189" d="M964 926l37 36-1-73-36 37z"/><path fill="#e7aba7" d="M1000 889l37 18-36 55-1-73z"/><path fill="#c2a2a8" d="M1037 907v56l36-57-36 1z"/><path fill="#ddbcbb" d="M1037 907v56l-36-1 36-55z"/><path fill="#cba8ae" d="M1001 962l36 1-1 34-35-35z"/><path fill="#e1c4c9" d="M1036 997l-54-18 19-17 35 35z"/><path fill="#cc6472" d="M1001 962l-37-36-36 36h73z"/><path fill="#4c1a29" d="M928 962l36-36-71-19 35 55z"/><path fill="#28111b" d="M928 962l-56 34 21-89 35 55z"/><path fill="#2d111f" d="M928 962l-18 38-38-4 56-34z"/><path fill="#ea9d99" d="M928 962l54 17 19-17h-73z"/><path fill="#e78e90" d="M928 962l54 55v-38l-54-17z"/><path fill="#dea3a1" d="M982 1017v-38l54 18-54 20z"/><path fill="#ba7176" d="M982 1017l54 17v-37l-54 20z"/><path fill="#ad5062" d="M982 1017l54 17-72 35 18-52z"/><path fill="#ad465d" d="M982 1017l-35 16-19-71 54 55z"/><path fill="#5f2034" d="M947 1033l-19-71-18 38 37 33z"/><path fill="#2f111f" d="M947 1033h-37v-33l37 33z"/><path d="M910 1033v-33l-38-4 38 37z"/><path fill="#280f1b" d="M910 1033h37l-19 36-18-36z"/><path fill="#501d2d" d="M928 1069h36l-17-36-19 36z"/><path fill="#a6455a" d="M964 1069l18-52-35 16 17 36z"/><path fill="#4f1e2c" d="M964 1069h55l17-35-72 35z"/><path fill="#32111f" d="M964 1069v18l55-18h-55z"/><path fill="#1f0a18" d="M964 1069v18l-36-18h36z"/><path fill="#985863" d="M857 1122l-20-34 19-1 1 35z"/><path fill="#ab8586" d="M749 1122l-36 216-72-72 108-144z"/><path fill="#64323d" d="M749 1122l-108 144-36-91 144-53z"/><path fill="#2a111d" d="M407 1229l198-54-162 110-36-56z"/><path fill="#98555e" d="M443 1285l72 53 90-163-162 110z"/><path fill="#ae656c" d="M515 1338l90-163 36 91-126 72z"/><path fill="#edc3b6" d="M515 1338l69 52 57-124-126 72z"/><path fill="#e7d3d5" d="M584 1390l129-52-72-72-57 124z"/><path fill="#f4ecee" d="M584 1390l129-52-53 109-76-57z"/><path fill="#baa7ae" d="M713 1338l19-112 124-85-143 197z"/><path fill="#8d676a" d="M732 1226l105-138-88 34-17 104z"/><path fill="#b0999f" d="M732 1226l105-138 20 34-125 104z"/><path fill="#ad949e" d="M732 1226l125-104-1 19-124 85z"/><path fill="#633d4c" d="M857 1122l53 91-54-72 1-19z"/><path fill="#271220" d="M857 1122l53 91 1-54-54-37z"/><path fill="#d4bdc4" d="M856 1141l54 72-53-19-1-53z"/><path fill="#c3b1b9" d="M856 1141l1 53-144 144 143-197z"/><path fill="#ddcacf" d="M713 1338l161 19-17-163-144 144z"/><path fill="#e3d0d6" d="M874 1357l36-144-53-19 17 163z"/><path fill="#edd7dd" d="M874 1357l54-91-18-53-36 144z"/><path fill="#34232d" d="M910 1213l1-54 54 126-55-72z"/><path fill="#5f2c3c" d="M910 1213l55 72-37-19-18-53z"/><path fill="#54293a" d="M928 1266l37 19-18 72-19-91z"/><path fill="#af6275" d="M928 1266l19 91h-19v-91z"/><path fill="#f3e0e3" d="M928 1266v91h-54l54-91z"/><path fill="#b26a7d" d="M928 1357h19l-54 72 35-72z"/><path fill="#874256" d="M947 1357l-37 90-17-18 54-72z"/><path fill="#f9e6ea" d="M893 1429l35-72h-54l19 72z"/><path fill="#fbe8ec" d="M893 1429l-108-18 89-54 19 72z"/><path fill="#f1e0e4" d="M785 1411l89-54-161-19 72 73z"/><path fill="#f5e7eb" d="M785 1411l-36 72-36-145 72 73z"/><path fill="#efdfe3" d="M713 1338l36 145-89-36 53-109z"/><path fill="#f1e1e6" d="M749 1483h107l-71-72-36 72z"/><path fill="#fcedef" d="M856 1483l37-54-108-18 71 72z"/><path fill="#ba8892" d="M856 1483l54-36-17-18-37 54z"/><path fill="#0f1117" d="M660 1447l-145-109 90 145 55-36z"/><path fill="#000c17" d="M515 1338l-124-35 52-18 72 53z"/><path d="M443 1285l-36-56-16 74 52-18zM391 1303l214 180-90-145-124-35z"/><path d="M391 1303l16-74-343 164 327-90z"/><path d="M391 1303l-56 56-271 34 327-90z" class="cls-22"/><path fill="#002030" d="M335 1359l270 124-214-180-56 56z"/><path fill="#000008" d="M605 1483l144 35-89-71-55 36z"/><path fill="#051321" d="M660 1447l89 71v-35l-89-36z"/><path fill="#1d2c3d" d="M749 1483h107l-107 35v-35z"/><path fill="#3d5b6e" d="M856 1483l1 55-108-20 107-35z"/><path fill="#73899d" d="M856 1483l54-36-53 91-1-55z"/><path fill="#7a94ab" d="M910 1447l18 36-71 55 53-91z"/><path fill="#8b8b9c" d="M910 1447l37-90-19 126-18-36z"/><path fill="#a3aec1" d="M947 1357h18l-37 126 19-126z"/><path fill="#868593" d="M965 1357v-72l-18 72h18z"/><path fill="#5d6770" d="M965 1285v-91l-54-35 54 126z"/><path fill="#0d2d33" d="M965 1194l144 127-74-75-70-52z"/><path fill="#5b7180" d="M965 1194l60 54-60 37v-91z"/><path fill="#7c8fa1" d="M1025 1248l-60 109v-72l60-37z"/><path fill="#607788" d="M1025 1248l84 181-144-72 60-109z"/><path fill="#2d4650" d="M1025 1248l84 181v-108l-84-73z"/><path fill="#001e24" d="M1109 1321l70 280-35-191-35-89z"/><path fill="#0d323b" d="M1109 1321l70 280-70-172v-108z"/><path fill="#87a1b6" d="M1109 1429l-181 54 37-126 144 72z"/><path fill="#7392ab" d="M857 1538l108 305-216-325 108 20z"/><path fill="#87a3bb" d="M857 1538l70 199 1-254-71 55z"/><path fill="#85a1ba" d="M928 1483l181-54-182 308 1-254z"/><path fill="#7593ad" d="M1109 1429l-144 414-38-106 182-308z"/><path fill="#4b6a7d" d="M1109 1429l-144 414h179l-35-414z"/><path fill="#012734" d="M1109 1429l70 172-35 242-35-414z"/><path fill="#001118" d="M1179 1601v242h-35l35-242z"/><path fill="#63859f" d="M965 1843l-216-325 18 199 198 126z"/><path fill="#42657e" d="M767 1717l-162-234 144 35 18 199z"/><path fill="#345972" d="M767 1717l-162-234-73 360 235-126z"/><path fill="#1f4359" d="M605 1483l-73 360-197-484 270 124z"/><path fill="#053244" d="M335 1359l-91 484-16-308 107-176z"/><path fill="#063347" d="M335 1359l-91 484 154-328-63-156z"/><path fill="#0c384c" d="M398 1515l134 328H244l154-328z"/><path fill="#000a17" d="M228 1535l107-176-271 34 164 142z"/><path fill="#001120" d="M228 1535l16 308-180-450 164 142z"/><path fill="#00101a" d="M64 1393l180 450H64v-450z"/><path d="M856 548l36-37h36l54 18 18 18 18 54v54l-36 54-34 18h-39l-30-20-23-34-18-37 1-36 17-52zM1144 565l35 17 19 73-19 53-18 37-53 17 18-34-35-55v-53l18-37 35-18z" class="cls-261"/></g></svg>